inDegrees=yes
name=ik_lifting_orientations
DataType=double
version=3
OpenSimVersion=4.5-2024-01-10-34fd6af
endheader
time	pelvis_tilt	pelvis_list	pelvis_rotation	pelvis_tx	pelvis_ty	pelvis_tz	hip_flexion_r	hip_adduction_r	hip_rotation_r	knee_angle_r	knee_angle_r_beta	ankle_angle_r	subtalar_angle_r	mtp_angle_r	hip_flexion_l	hip_adduction_l	hip_rotation_l	knee_angle_l	knee_angle_l_beta	ankle_angle_l	subtalar_angle_l	mtp_angle_l	lumbar_extension	lumbar_bending	lumbar_rotation	arm_flex_r	arm_add_r	arm_rot_r	elbow_flex_r	pro_sup_r	wrist_flex_r	wrist_dev_r	arm_flex_l	arm_add_l	arm_rot_l	elbow_flex_l	pro_sup_l	wrist_flex_l	wrist_dev_l
0.02	-0.002429758954161474	-0.008709565252483405	-89.94010627649008	0	0.9399999998679526	0	45.62343461327051	-11.00891157018574	0	60.63900540839249	1.058350299511098	-5.386833238972202	0	0	45.62343461327051	-11.00891157018574	0	60.63900540839249	1.058350299511098	-5.386833238972202	0	0	-0.01519029737358995	0.0008504625652644438	0.009033896843545995	-0.4727112386802322	-0.1046229102203326	-0.03196717190050533	0.9922890144768877	1.54164361860008	0	0	0	-10.38629758488045	0	88.51231720035886	1.54164361860008	0	0
0.03	0.001354123267702067	-0.05239498344944284	-90.06253136475881	0	0.9399999998679526	0	45.61038960860964	-10.94281871317037	0	60.62844696852734	1.058166019971577	-5.355215413950903	0	0	45.61038960860964	-10.94281871317037	0	60.62844696852734	1.058166019971577	-5.355215413950903	0	0	-0.0554032470956721	-5.591858157026281e-05	0.05772164510785273	-0.252826494984992	-0.05102809182889599	0.0525006241436562	0.466710344172271	1.518893022537474	0	0	0	-10.43686065212887	0	88.53426855377229	1.518893022537474	0	0
0.04	-0.01281869119597697	-0.005876604622382799	-89.65498937347596	0	0.9399999998679526	0	45.61030619370746	-10.94238077859609	0	60.62837806821867	1.058164817434335	-5.355001451993302	0	0	45.61030619370746	-10.94238077859609	0	60.62837806821867	1.058164817434335	-5.355001451993302	0	0	-0.001601450436056489	0.0187537861644092	-0.1992051082875863	-0.2697134078426098	-0.05891742904768689	-0.1286006823057441	0.4606112632892839	1.518747330430187	0	0	0	-10.43718553711495	0	88.53440912760544	1.518747330430187	0	0
0.05	-0.004585890633612201	0.05061509303975735	-89.82617254209812	0	0.9399999998679526	0	45.61023542464374	-10.94200465506092	0	60.62832017464233	1.058163807000812	-5.354817256335295	0	0	45.61023542464374	-10.94200465506092	0	60.62832017464233	1.058163807000812	-5.354817256335295	0	0	0.05121040439296713	0.01047041094005904	-0.1777316903350317	-0.2708056895437747	-0.05821773639802791	0.008014034020297182	0.4616983603715562	1.518624186265017	0	0	0	-10.43745928489156	0	88.53452794557988	1.518624186265017	0	0
0.06	-0.0178543982386554	0.001219292749606086	-89.69607464982994	0	0.9399999998679526	0	45.6100716481869	-10.9411254325682	0	60.62818734239833	1.058161488640802	-5.354385934024732	0	0	45.6100716481869	-10.9411254325682	0	60.62818734239833	1.058161488640802	-5.354385934024732	0	0	0.0033059100777414	0.01854589112175271	-0.5586986413906767	-0.266544179657618	-0.04207156928761471	0.2362216343149286	0.4468390760314155	1.518340131066916	0	0	0	-10.43808898010836	0	88.53480202151754	1.518340131066916	0	0
0.07000000000000001	-0.003507282696698374	0.0599657931115504	-89.81608101091913	0	0.9399999998679526	0	45.59660699285303	-10.87915972612421	0	60.61718378711187	1.057969440371628	-5.32573394982256	0	0	45.59660699285303	-10.87915972612421	0	60.61718378711187	1.057969440371628	-5.32573394982256	0	0	0.05823444464038539	0.002885412632379315	-0.3147266283795626	-0.2825675979106003	-0.04101467877941966	0.1125817825532369	0.4583936172796331	1.494538575848271	0	0	0	-10.49142700808151	0	88.55776745110013	1.494538575848271	0	0
0.08	-0.004007837817814012	0.05838640368999172	-89.94550118337528	0	0.9399999998679526	0	45.58106609672036	-10.80960127853713	0	60.60445035495574	1.057747200055424	-5.293920303314019	0	0	45.58106609672036	-10.80960127853713	0	60.60445035495574	1.057747200055424	-5.293920303314019	0	0	0.0557998734843938	0.001796868893224608	-0.1294270141775055	-0.2977144724910283	-0.03657668469921934	0.02457811295957125	0.4819769731582899	1.466965368213674	0	0	0	-10.55335597005383	0	88.58437204928167	1.466965368213674	0	0
0.09	0.03302596046689557	0.004795411319383856	-90.36740174512374	0	0.9399999998679526	0	45.58091372449955	-10.80886751986113	0	60.60432485312075	1.057745009635186	-5.293573685809631	0	0	45.58091372449955	-10.80886751986113	0	60.60432485312075	1.057745009635186	-5.293573685809631	0	0	0.005524642115991006	-0.0323160844487657	0.2334263514784244	-0.2963565997758117	-0.03530201420300236	0.05008644970008473	0.4931301384983831	1.466696739403795	0	0	0	-10.55395774859615	0	88.5846312412784	1.466696739403795	0	0
0.1	0.04931991296893973	0.06755979743368699	-90.68289385038811	0	0.9399999998679526	0	45.58077882320807	-10.80822475436652	0	60.60421288029025	1.057743055340621	-5.293270737741207	0	0	45.58077882320807	-10.80822475436652	0	60.60421288029025	1.057743055340621	-5.293270737741207	0	0	0.07113183904579731	-0.04718107136676368	0.6067599888423768	-0.2987166920714893	-0.03934727222073911	-0.02108165925989655	0.4791804144916477	1.466458181468001	0	0	0	-10.55449352149528	0	88.58486141884137	1.466458181468001	0	0
0.11	0.01842488817946204	0.06271301441176513	-90.42754812740978	0	0.9399999998679526	0	45.58071532564418	-10.80792574144488	0	60.60415970853103	1.057742127318353	-5.293130143930333	0	0	45.58071532564418	-10.80792574144488	0	60.60415970853103	1.057742127318353	-5.293130143930333	0	0	0.06976692425986603	-0.02285751075159094	0.5364461647666192	-0.3031189003889444	-0.01373410849804677	-0.2321870260841266	0.5181574657887722	1.466345502254028	0	0	0	-10.55474731778777	0	88.58497013974761	1.466345502254028	0	0
0.12	0.0523061825142686	0.01499472067495639	-90.74749633779854	0	0.9399999998679526	0	45.57996660771134	-10.80435742789405	0	60.60354090819058	1.057731327215	-5.291450463230459	0	0	45.57996660771134	-10.80435742789405	0	60.60354090819058	1.057731327215	-5.291450463230459	0	0	0.02619965798590222	-0.0492510942086664	1.1174404354603	-0.3056770458108332	-0.02148028601283349	-0.5254409603531811	0.5141282235795647	1.465023013687537	0	0	0	-10.55771404328928	0	88.58624617010679	1.465023013687537	0	0
0.13	0.05052475347619326	0.03015451836542725	-90.63255954380075	0	0.9399999998679526	0	45.57986043426915	-10.80384715200311	0	60.60345361274889	1.057729803622121	-5.291209764636872	0	0	45.57986043426915	-10.80384715200311	0	60.60345361274889	1.057729803622121	-5.291209764636872	0	0	0.07215370384268907	-0.08908383356575363	1.241463915198671	-0.3089774531113161	0.0227432992842611	-0.7666277882122656	0.5391918666751867	1.464835882121666	0	0	0	-10.55813309865948	0	88.58642672782031	1.464835882121666	0	0
0.14	0.0506306973304758	0.06398482030397694	-90.55423447615665	0	0.9399999998679526	0	45.57970261794123	-10.80308484377823	0	60.60332443112195	1.057727548977398	-5.290849880486849	0	0	45.57970261794123	-10.80308484377823	0	60.60332443112195	1.057727548977398	-5.290849880486849	0	0	0.08085036338516323	-0.03974470573569801	1.788984082459435	-0.2916176949511842	-0.02834177853823751	-1.389543439878599	0.5388738451422511	1.464558191836651	0	0	0	-10.55875406521746	0	88.58669466292403	1.464558191836651	0	0
0.15	0.0305517971469772	0.0617301130767549	-90.17773913925993	0	0.9399999998679526	0	45.57951919861917	-10.80219927815049	0	60.60317430900144	1.057724928852114	-5.290431910929166	0	0	45.57951919861917	-10.80219927815049	0	60.60317430900144	1.057724928852114	-5.290431910929166	0	0	0.0893211718542269	-0.01499708083741044	2.481715069958585	-0.2917391473631557	-0.03981963236328804	-2.486702740242295	0.5617101715444542	1.464235444662938	0	0	0	-10.55947578562205	0	88.58700607208199	1.464235444662938	0	0
0.16	0.03012338231475861	0.06132129072697437	-89.9287744334559	0	0.9399999998679526	0	45.57933852468647	-10.80132686812005	0	60.60302653382246	1.057722349688689	-5.290020219452356	0	0	45.57933852468647	-10.80132686812005	0	60.60302653382246	1.057722349688689	-5.290020219452356	0	0	0.09659780071015028	-0.01054669792892591	3.292784389775505	-0.3385274945243278	-0.0388685621507678	-3.533823016703711	0.6213121073009678	1.463917588521082	0	0	0	-10.56018643734597	0	88.58731276202424	1.463917588521082	0	0
